<?xml version="1.0" encoding="UTF-8"?>
<svg version="1.1" xmlns="http://www.w3.org/2000/svg" width="251" height="192">
<path d="M0 0 C7.41428001 -0.35835948 14.82629339 -0.60148234 22.24731445 -0.76904297 C24.76476441 -0.83895871 27.28165602 -0.93413668 29.79711914 -1.05615234 C52.95643289 -2.15043796 52.95643289 -2.15043796 61.27207947 5.07077026 C64.0903125 7.9031414 66.58482975 10.81516575 69 14 C70.4540625 12.7625 70.4540625 12.7625 71.9375 11.5 C72.5832045 10.96016479 73.228909 10.42032959 73.8941803 9.86413574 C76.04757354 8.01648849 76.04757354 8.01648849 78.01487732 5.84777832 C82.14956304 1.59933111 85.06130212 -0.49618641 91.07055664 -0.90820312 C93.35081554 -0.90695107 95.63134866 -0.86260232 97.91015625 -0.78125 C99.11820419 -0.76993042 100.32625214 -0.75861084 101.57090759 -0.74694824 C105.40309904 -0.70241258 109.23145291 -0.6020778 113.0625 -0.5 C115.67116966 -0.4598442 118.27989838 -0.42334715 120.88867188 -0.390625 C127.26040853 -0.30275145 133.62993007 -0.16913854 140 0 C139.98143951 0.981465 139.96287903 1.96292999 139.9437561 2.97413635 C139.77700296 12.28488756 139.68572408 21.5938285 139.66578102 30.90608311 C139.65317305 35.69258059 139.61523365 40.47591554 139.51660156 45.26147461 C139.42214079 49.89212167 139.3978801 54.51859161 139.41953659 59.1500988 C139.41593432 60.90468383 139.3882607 62.65941193 139.33458328 64.4131794 C139.06121017 73.8902398 139.64357334 80.36217047 146.11929893 87.66493893 C148.96806179 90.59170953 151.91363422 93.32414201 155 96 C154.67 93.69 154.34 91.38 154 89 C157.3 89 160.6 89 164 89 C163.87238281 90.08796875 163.74476563 91.1759375 163.61328125 92.296875 C162.76346711 101.33309322 162.76346711 101.33309322 166.1328125 109.44921875 C168.40880848 112.03880373 170.92158566 114.35877789 173.50292969 116.64013672 C175.85566945 118.77724704 177.94609566 121.13197104 180.0625 123.5 C180.77535156 124.2734375 181.48820313 125.046875 182.22265625 125.84375 C183.86446836 127.8355748 184.96755844 129.64624722 186 132 C186.66 132 187.32 132 188 132 C187.67 133.32 187.34 134.64 187 136 C179.4810381 136.25617342 171.96253412 136.45096265 164.44018745 136.56993389 C160.94584956 136.62707542 157.45452002 136.70438989 153.96191406 136.82983398 C149.93527447 136.97353443 145.91173337 137.02581131 141.8828125 137.07421875 C140.64387238 137.13099289 139.40493225 137.18776703 138.12844849 137.2462616 C132.72350418 137.25006572 129.34438529 137.07969722 125.04022217 133.62295532 C122.50258005 130.85185244 120.23137645 128.02044228 118 125 C116.8247777 123.61449151 115.64005722 122.23685072 114.4375 120.875 C113.61572266 119.92753906 113.61572266 119.92753906 112.77734375 118.9609375 C110.03324265 115.9333798 107.1060093 113.09676509 104.1953125 110.23046875 C102.15582235 108.15831773 100.25668276 106.02748531 98.375 103.8125 C96.17440397 101.23407542 93.93659889 99.01996406 91.3125 96.875 C88.16162431 94.29508836 86.19109435 91.44314827 84 88 C83.01 87.34 82.02 86.68 81 86 C81 85.34 81 84.68 81 84 C80.34 84 79.68 84 79 84 C77.37890625 82.35546875 77.37890625 82.35546875 75.5625 80.1875 C73.45536324 77.68897282 71.34758602 75.2757944 69 73 C64.73823677 77.17478847 60.49812953 81.3327897 56.625 85.875 C53.73785219 89.24557721 50.65753382 92.38504207 47.5 95.5 C43.75969175 99.18994221 40.21760652 102.97503696 36.80859375 106.97265625 C33.82716225 110.31469286 30.59906354 113.4081759 27.4140625 116.5546875 C25.31066401 118.68531445 23.32469755 120.85480423 21.375 123.125 C20.85461655 123.71930313 20.33423309 124.31360626 19.79808044 124.92591858 C18.61468201 126.29096579 17.45792425 127.67964822 16.33143616 129.09202576 C12.7230547 133.24575669 10.10197388 135.48581587 4.52124023 136.01586914 C2.4508811 136.06285129 0.37923813 136.06718945 -1.69140625 136.03515625 C-2.79548325 136.04840439 -3.89956024 136.06165253 -5.03709412 136.07530212 C-8.5464769 136.10794502 -12.05308711 136.08540267 -15.5625 136.0625 C-17.92385544 136.07918287 -20.2851891 136.09933088 -22.64648438 136.12304688 C-40.94119679 136.24523319 -40.94119679 136.24523319 -48 135 C-48 130.73387393 -45.49792131 128.97223856 -42.6875 126.0625 C-41.59089316 124.90128023 -40.49454521 123.73981593 -39.3984375 122.578125 C-38.83608398 121.98708984 -38.27373047 121.39605469 -37.69433594 120.78710938 C-35.03980539 117.98722989 -32.42411613 115.1523538 -29.8125 112.3125 C-29.34352295 111.8079126 -28.8745459 111.3033252 -28.39135742 110.78344727 C-24.58430437 106.65411152 -23.85343417 104.46040173 -23.4375 98.875 C-23.35371094 97.77929688 -23.26992188 96.68359375 -23.18359375 95.5546875 C-23.09271484 94.29011719 -23.09271484 94.29011719 -23 93 C-23.66 93 -24.32 93 -25 93 C-25 91.68 -25 90.36 -25 89 C-21.7 89 -18.4 89 -15 89 C-15.2784375 90.175625 -15.2784375 90.175625 -15.5625 91.375 C-16.25962266 93.97089775 -16.25962266 93.97089775 -15 96 C-14.40832031 95.25234375 -13.81664062 94.5046875 -13.20703125 93.734375 C-12.41683594 92.74953125 -11.62664063 91.7646875 -10.8125 90.75 C-10.03519531 89.77546875 -9.25789063 88.8009375 -8.45703125 87.796875 C-6 85 -6 85 -3.38764954 83.31829834 C-0.6409969 80.65142443 -0.39813139 79.12328274 -0.31443787 75.36195374 C-0.32306351 74.61892502 -0.33168915 73.8758963 -0.34057617 73.11035156 C-0.32485062 71.92441658 -0.32485062 71.92441658 -0.30880737 70.71452332 C-0.28004916 68.10615837 -0.28634942 65.49912013 -0.29296875 62.890625 C-0.27985411 61.08028499 -0.26455061 59.26995962 -0.24714661 57.45965576 C-0.20725608 52.69863179 -0.19710357 47.93799023 -0.19311523 43.17681885 C-0.18379141 38.31697967 -0.14638261 33.4573659 -0.11132812 28.59765625 C-0.04671106 19.06511473 -0.01350476 9.53274135 0 0 Z M138 89 C131.29224272 96.2970369 124.6143744 103.61803154 118 111 C119.28447559 112.81967375 120.59896898 114.62078363 121.99609375 116.35546875 C124 119 124 119 125.91015625 122.42578125 C128.6308215 126.73115177 131.23974917 129.93502692 136 132 C146.8690425 133.669029 158.07875841 132.79364028 169 132 C169.43981222 126.37319892 169.43981222 126.37319892 167.453125 121.26953125 C166.72609375 120.45871094 165.9990625 119.64789063 165.25 118.8125 C164.43273437 117.884375 163.61546875 116.95625 162.7734375 116 C161.85090544 114.99820345 160.92633697 113.99827929 160 113 C158.99186136 111.8961311 157.98405771 110.79195619 156.9765625 109.6875 C154.93200125 107.45657123 152.87488019 105.23815369 150.80859375 103.02734375 C147.93252145 99.94315366 145.14851334 96.78630817 142.40234375 93.5859375 C140.99253394 91.99155649 139.52030642 90.48872735 138 89 Z M0 90 C-8.74913684 99.40662027 -8.74913684 99.40662027 -17.26953125 109.01953125 C-20.18757096 112.35913878 -23.18901052 115.62389965 -26.1796875 118.8984375 C-28.85291394 121.98469464 -29.11958767 123.62886281 -29.0625 127.625 C-29.05347656 128.44226563 -29.04445313 129.25953125 -29.03515625 130.1015625 C-29.02355469 130.72804687 -29.01195313 131.35453125 -29 132 C-24.87449131 132.17445227 -20.75044004 132.30070887 -16.62207031 132.38452148 C-15.22129884 132.41949242 -13.82077858 132.46709032 -12.42089844 132.52807617 C-2.68000819 133.08890461 -2.68000819 133.08890461 5.71875 128.7421875 C6.84818016 127.52700317 7.94730852 126.28223479 9 125 C9.763125 124.22011719 10.52625 123.44023437 11.3125 122.63671875 C11.869375 121.99347656 12.42625 121.35023438 13 120.6875 C13.5775 120.03136719 14.155 119.37523437 14.75 118.69921875 C16.1975224 117.08307056 16.1975224 117.08307056 16 115 C17.32 114.34 18.64 113.68 20 113 C19.5047409 108.75492198 16.86001618 106.23977185 14.0625 103.25 C13.60681641 102.74339844 13.15113281 102.23679687 12.68164062 101.71484375 C11.50093297 100.43214232 10.25448188 99.21064807 9 98 C8.34 98 7.68 98 7 98 C6.773125 97.4225 6.54625 96.845 6.3125 96.25 C4.67197539 93.4376721 2.56221186 91.97029539 0 90 Z " fill="#F1853A" transform="translate(56,12)"/>
<path d="M0 0 C15.18 0 30.36 0 46 0 C46.36097928 19.85386062 46.36097928 19.85386062 46.43945312 28.35351562 C46.4931422 34.14114151 46.55646916 39.92747925 46.67895508 45.71411133 C46.77714996 50.38267114 46.83064067 55.04984906 46.85389519 59.71936226 C46.87045394 61.49564931 46.90279207 63.27186536 46.95157051 65.04755974 C47.31818711 78.95376079 47.31818711 78.95376079 44.07052612 83.99514771 C41.82877782 86.23941795 39.52490415 88.0892153 37 90 C35.69247592 91.44683523 34.41509709 92.92225851 33.1875 94.4375 C30.9659446 97.15273438 29.15857231 98.50656888 26 100 C18.85392533 92.3789458 11.71323989 84.75981846 4.76953125 76.953125 C3.12983343 75.01788532 3.12983343 75.01788532 1.41069031 73.81230164 C-0.7737442 71.00597752 -0.35895066 68.55957596 -0.34057617 65.05004883 C-0.34123329 63.99600609 -0.34123329 63.99600609 -0.34190369 62.92066956 C-0.33981447 60.59917364 -0.31647819 58.27840091 -0.29296875 55.95703125 C-0.28737324 54.34706517 -0.28310293 52.73709398 -0.28010559 51.12712097 C-0.26865318 46.89045093 -0.23918279 42.6540896 -0.20599365 38.4175415 C-0.16990455 33.33398061 -0.15613348 28.25031647 -0.13863373 23.16666412 C-0.10954545 15.44422806 -0.05206159 7.72246933 0 0 Z " fill="#99C9C9" transform="translate(142,19)"/>
<path d="M0 0 C12.87 0 25.74 0 39 0 C39.64174095 19.0338583 39.64174095 19.0338583 39.78125 27.25195312 C39.87632032 32.82552797 39.98776689 38.39483486 40.20703125 43.96508789 C41.51865421 78.159166 41.51865421 78.159166 33.40014648 87.65260315 C30.68749583 90.26706127 27.90747935 92.59123118 24.80615234 94.72976685 C22.79981588 96.06341309 22.79981588 96.06341309 20.61328125 98.38842773 C19 100 19 100 17 100 C15.26366626 98.27846456 13.76887801 96.40440265 12.2227478 94.51057434 C10.05062413 91.94593931 10.05062413 91.94593931 7.45620728 89.79667664 C2.29719594 85.08641602 -0.49109176 81.61009225 -1.06177711 74.65337849 C-1.19242646 70.49669734 -1.10418064 66.36265228 -0.9765625 62.20703125 C-0.95787668 60.40675309 -0.94365841 58.60642356 -0.9336853 56.80607605 C-0.89577153 52.1013073 -0.79779042 47.39969933 -0.68664551 42.69616699 C-0.56562025 37.03482124 -0.52031791 31.37240953 -0.46211243 25.71013641 C-0.36561948 17.13790275 -0.17388606 8.57258281 0 0 Z " fill="#99C9C9" transform="translate(63,19)"/>
<path d="M0 0 C1.1471196 0.00565979 2.2942392 0.01131958 3.47612 0.01715088 C7.13424688 0.03951303 10.79138869 0.08971173 14.44921875 0.140625 C16.93162646 0.16069009 19.41404955 0.17894084 21.89648438 0.1953125 C27.9768977 0.23937741 34.05673784 0.30628906 40.13671875 0.390625 C40.25253167 10.75212637 40.34139297 21.11347396 40.39577961 31.47549057 C40.42188171 36.2869527 40.45729077 41.09797228 40.51391602 45.90917969 C40.56821421 50.55168256 40.59813467 55.1937596 40.61110497 59.83655548 C40.62034883 61.60844885 40.63840015 63.38031871 40.66536903 65.15203094 C40.70163164 67.63279203 40.70666549 70.11179027 40.7043457 72.59277344 C40.72232208 73.32645142 40.74029846 74.06012939 40.75881958 74.81604004 C40.73799133 76.87249756 40.73799133 76.87249756 40.13671875 80.390625 C38.48671875 81.710625 36.83671875 83.030625 35.13671875 84.390625 C35.13671875 58.650625 35.13671875 32.910625 35.13671875 6.390625 C19.29671875 6.390625 3.45671875 6.390625 -12.86328125 6.390625 C-12.86328125 29.160625 -12.86328125 51.930625 -12.86328125 75.390625 C-13.85328125 74.730625 -14.84328125 74.070625 -15.86328125 73.390625 C-15.86328125 72.730625 -15.86328125 72.070625 -15.86328125 71.390625 C-16.52328125 71.390625 -17.18328125 71.390625 -17.86328125 71.390625 C-19.484375 69.74609375 -19.484375 69.74609375 -21.30078125 67.578125 C-23.7252807 64.66202807 -23.7252807 64.66202807 -26.44070435 62.03149414 C-28.24235413 59.95338397 -28.28331052 58.81816484 -28.37841797 56.09375 C-28.41369598 55.22854736 -28.448974 54.36334473 -28.48532104 53.47192383 C-28.50434479 52.53759521 -28.52336853 51.6032666 -28.54296875 50.640625 C-28.56481232 49.67213623 -28.58665588 48.70364746 -28.60916138 47.70581055 C-28.64628756 45.65150871 -28.67426834 43.59702446 -28.69384766 41.54248047 C-28.73776659 38.42713206 -28.85642449 35.32023723 -28.9765625 32.20703125 C-29.31932034 15.80357312 -29.31932034 15.80357312 -24.10964966 10.08276367 C-21.82972689 7.96966224 -19.41499601 6.16225032 -16.86328125 4.390625 C-16.16420654 3.64973633 -15.46513184 2.90884766 -14.74487305 2.14550781 C-10.0878242 -0.69062428 -5.3398058 -0.09917062 0 0 Z " fill="#FD9633" transform="translate(153.86328125,12.609375)"/>
<path d="M0 0 C0.65240662 -0.01956757 1.30481323 -0.03913513 1.97698975 -0.05929565 C4.14367563 -0.11926916 6.31011073 -0.16201867 8.47729492 -0.19970703 C9.59207498 -0.21942251 9.59207498 -0.21942251 10.72937584 -0.23953629 C14.67351028 -0.30479395 18.61753622 -0.35364523 22.56201172 -0.39257812 C25.80778914 -0.42801485 29.05002629 -0.49729005 32.29443359 -0.59765625 C62.17025056 -1.50234831 62.17025056 -1.50234831 69.49943542 4.82174683 C71.01812961 6.45267267 72.34484202 8.11514857 73.64794922 9.92089844 C74.30706299 10.74477051 74.96617676 11.56864258 75.64526367 12.41748047 C77.909246 12.43875085 77.909246 12.43875085 79.64526367 11.41748047 C79.64526367 10.75748047 79.64526367 10.09748047 79.64526367 9.41748047 C81.28877825 8.05571125 82.96049023 6.72785981 84.64526367 5.41748047 C85.38435974 4.55939789 86.12345581 3.70131531 86.88494873 2.81723022 C90.36619068 -0.2092757 92.06233161 -0.19601332 96.62280273 -0.16601562 C97.30467651 -0.16835205 97.98655029 -0.17068848 98.68908691 -0.1730957 C100.93048083 -0.17470359 103.16978889 -0.14076096 105.41088867 -0.10595703 C106.97075661 -0.09916515 108.53063482 -0.09444443 110.09051514 -0.09170532 C113.35223361 -0.08104509 116.61326357 -0.05438837 119.87475586 -0.01464844 C124.06374305 0.03638698 128.25233595 0.06139125 132.44159317 0.07628822 C136.43141338 0.09104363 140.42114021 0.1162825 144.41088867 0.14404297 C145.17574837 0.14895374 145.94060806 0.15386452 146.72864532 0.1589241 C148.88096926 0.17513085 151.03307848 0.19853037 153.18530273 0.22460938 C154.41154358 0.23746979 155.63778442 0.2503302 156.90118408 0.26358032 C159.64526367 0.41748047 159.64526367 0.41748047 160.64526367 1.41748047 C160.83276367 3.85498047 160.83276367 3.85498047 160.64526367 6.41748047 C158.64526367 8.41748047 158.64526367 8.41748047 156.07600403 8.60174561 C154.9887352 8.57284241 153.90146637 8.54393921 152.78125 8.51416016 C151.54848831 8.48884216 150.31572662 8.46352417 149.04560852 8.43743896 C148.38367304 8.42053764 147.72173756 8.40363632 147.03974342 8.38622284 C143.51088864 8.30603265 139.98150167 8.29085725 136.4519043 8.26513672 C131.96991664 8.22969702 127.49103779 8.17586753 123.01074219 8.04394531 C103.91460595 6.81353287 103.91460595 6.81353287 87.28581238 14.4644165 C84.99245743 16.86745599 82.95046952 19.40606982 80.92562866 22.03598022 C79.64526367 23.41748047 79.64526367 23.41748047 76.94140625 24.45996094 C73.43798472 24.39514485 72.11034685 22.68823318 69.64526367 20.29248047 C68.77772461 19.46490234 67.91018555 18.63732422 67.01635742 17.78466797 C65.23500808 16.0062533 63.46338987 14.22113291 61.70776367 12.41748047 C58.24755928 9.06213075 55.04529741 9.27563417 50.4296875 9.2121582 C49.14858597 9.19221298 47.86748444 9.17226776 46.54756165 9.15171814 C45.14914064 9.13473507 43.75071836 9.11785622 42.35229492 9.10107422 C40.92168077 9.0804988 39.49107262 9.05950217 38.06047058 9.0381012 C34.29746361 8.98294114 30.53440232 8.93350518 26.77130127 8.88525391 C22.93041151 8.83499454 19.08960051 8.77933164 15.2487793 8.72412109 C7.7143408 8.61661374 0.17983677 8.51515236 -7.35473633 8.41748047 C-7.97973633 5.54248047 -7.97973633 5.54248047 -8.35473633 2.41748047 C-5.58867071 -0.34858515 -3.87830963 0.10417579 0 0 Z " fill="#F68A36" transform="translate(49.354736328125,-0.41748046875)"/>
<path d="M0 0 C1.65125885 0.00045319 1.65125885 0.00045319 3.33587646 0.00091553 C4.51828918 0.02156067 5.7007019 0.04220581 6.91894531 0.06347656 C8.13406799 0.06913635 9.34919067 0.07479614 10.60113525 0.08062744 C14.48351374 0.10302422 18.36497059 0.15322969 22.24707031 0.20410156 C24.87856741 0.22416216 27.51007896 0.24241369 30.14160156 0.25878906 C36.59373912 0.30290003 43.04533888 0.36984637 49.49707031 0.45410156 C49.47850983 1.43556656 49.45994934 2.41703156 49.44082642 3.42823792 C49.27407327 12.73898912 49.18279439 22.04793006 49.16285133 31.36018467 C49.15024336 36.14668216 49.11230397 40.9300171 49.01367188 45.71557617 C48.91921111 50.34622324 48.89495042 54.97269317 48.9166069 59.60420036 C48.91300463 61.35878539 48.88533101 63.11351349 48.83165359 64.86728096 C48.55828048 74.34434136 49.14064366 80.81627204 55.61636925 88.11904049 C58.4651321 91.0458111 61.41070453 93.77824357 64.49707031 96.45410156 C64.00207031 92.98910156 64.00207031 92.98910156 63.49707031 89.45410156 C66.79707031 89.45410156 70.09707031 89.45410156 73.49707031 89.45410156 C73.37525391 91.37222656 73.37525391 91.37222656 73.25097656 93.32910156 C72.2835626 103.74215461 72.2835626 103.74215461 76.24707031 112.82910156 C77.64854029 114.05502807 79.06801375 115.260447 80.49707031 116.45410156 C82.65472521 118.6552662 84.72766941 120.93151604 86.80957031 123.20410156 C87.33711914 123.7601709 87.86466797 124.31624023 88.40820312 124.88916016 C91.03968392 127.68945613 92.75709492 129.97415077 94.49707031 133.45410156 C89.54707031 133.45410156 84.59707031 133.45410156 79.49707031 133.45410156 C79.60019531 131.92785156 79.70332031 130.40160156 79.80957031 128.82910156 C79.10385149 120.4147618 72.78956926 115.57344953 67.05761719 109.99462891 C65.14399265 108.10555337 63.37096849 106.12081985 61.62207031 104.07910156 C59.94039582 102.12347007 58.25187158 100.18219802 56.52441406 98.26660156 C55.87601562 97.54472656 55.22761719 96.82285156 54.55957031 96.07910156 C53.67978516 95.1084375 53.67978516 95.1084375 52.78222656 94.11816406 C51.49707031 92.45410156 51.49707031 92.45410156 51.49707031 90.45410156 C47.2229538 90.93879519 45.54651917 91.99519956 42.87207031 95.32910156 C38.29539121 100.94122843 38.29539121 100.94122843 36.49707031 102.45410156 C35.50707031 102.45410156 34.51707031 102.45410156 33.49707031 102.45410156 C33.29082031 103.01097656 33.08457031 103.56785156 32.87207031 104.14160156 C30.94706257 107.37911459 28.45856129 109.13641297 25.49707031 111.45410156 C24.83707031 110.46410156 24.17707031 109.47410156 23.49707031 108.45410156 C25.16976616 105.1519097 27.07265874 102.80558647 29.79678345 100.35899353 C36.66390083 94.09261634 41.67032057 88.92146764 42.17822266 79.31567383 C42.26595849 75.95986475 42.18568141 72.62509612 42.08300781 69.27050781 C42.07932339 67.47590853 42.08184918 65.68128693 42.09024048 63.88670349 C42.09573945 59.21425154 42.01821351 54.54692505 41.92193604 49.87561035 C41.83844699 45.08883676 41.83544795 40.30203988 41.82519531 35.51464844 C41.79353699 26.1594228 41.67395493 16.80763156 41.49707031 7.45410156 C41.82707031 7.45410156 42.15707031 7.45410156 42.49707031 7.45410156 C42.82707031 32.86410156 43.15707031 58.27410156 43.49707031 84.45410156 C46.74375696 81.20741492 46.85300994 80.36743956 46.93379211 76.00393677 C46.93235703 75.26666351 46.93092194 74.52939026 46.92944336 73.76977539 C46.93963501 72.98905167 46.94982666 72.20832794 46.96032715 71.40394592 C46.99052561 68.82293587 46.99973336 66.24229652 47.00878906 63.66113281 C47.0256307 61.87178812 47.04378024 60.08245531 47.06318665 58.2931366 C47.11074882 53.58317778 47.14051788 48.87326707 47.16662598 44.16314697 C47.1964002 39.35704037 47.24294126 34.55109965 47.28808594 29.74511719 C47.37418973 20.31486531 47.44150348 10.88457935 47.49707031 1.45410156 C40.14607133 1.52097945 32.79560934 1.61073741 25.44506836 1.71655273 C22.94350566 1.74984627 20.44186705 1.77786424 17.94018555 1.80053711 C14.3481403 1.83400116 10.75679366 1.88631399 7.16503906 1.94238281 C5.48211006 1.9519677 5.48211006 1.9519677 3.7651825 1.96174622 C2.72432999 1.98154037 1.68347748 2.00133453 0.61108398 2.02172852 C-0.30602859 2.03283157 -1.22314117 2.04393463 -2.16804504 2.05537415 C-4.90370742 2.52254223 -5.79438613 3.32202774 -7.50292969 5.45410156 C-8.16292969 5.12410156 -8.82292969 4.79410156 -9.50292969 4.45410156 C-6.44714035 0.81605332 -4.73318909 -0.04342375 0 0 Z " fill="#E8793E" transform="translate(146.5029296875,11.5458984375)"/>
<path d="M0 0 C6.35277824 3.17638912 12.3109372 6.74381662 16 13 C17.91203933 19.30524142 17.68696537 25.92572678 17.50952148 32.45166016 C17.43752412 35.49897903 17.48856552 38.52705887 17.55273438 41.57421875 C17.57818082 57.38407855 17.57818082 57.38407855 12.20558167 63.22277832 C9.93120315 65.3254522 7.48857761 67.15936264 5 69 C3.35 70.65 1.7 72.3 0 74 C0 49.58 0 25.16 0 0 Z " fill="#FE9832" transform="translate(109,15)"/>
<path d="M0 0 C16.5 0 33 0 50 0 C50.20054405 19.05614097 50.20054405 19.05614097 50.24414062 27.17578125 C50.27403669 32.71752846 50.30941181 38.25886283 50.37719727 43.80029297 C50.43150349 48.2677335 50.46141753 52.73473139 50.47438622 57.2024765 C50.48362867 58.90738647 50.50167732 60.61227207 50.52865028 62.31699371 C50.5649241 64.70437559 50.56994634 67.08992618 50.56762695 69.47753906 C50.58560333 70.18316483 50.60357971 70.88879059 50.62210083 71.61579895 C50.60127258 73.59576416 50.60127258 73.59576416 50 77 C48.35 78.32 46.7 79.64 45 81 C45 55.92 45 30.84 45 5 C31.47 5 17.94 5 4 5 C4 30.74 4 56.48 4 83 C-0.45620865 78.54379135 -0.45620865 78.54379135 -0.49768066 73.48887634 C-0.48329956 72.7645491 -0.46891846 72.04022186 -0.45410156 71.29394531 C-0.45468567 70.52282913 -0.45526978 69.75171295 -0.45587158 68.95722961 C-0.45308947 66.41373347 -0.42199291 63.87141586 -0.390625 61.328125 C-0.38316303 59.56264893 -0.37746989 57.79716457 -0.37347412 56.03167725 C-0.35821428 51.38886579 -0.3189296 46.74655626 -0.2746582 42.10394287 C-0.22651188 36.53148267 -0.20817313 30.95885447 -0.18484497 25.38624573 C-0.1460786 16.92381492 -0.06942786 8.46248503 0 0 Z " fill="#FD9733" transform="translate(58,14)"/>
<path d="M0 0 C0 15.84 0 31.68 0 48 C-8.25 48 -16.5 48 -25 48 C-25.69545134 41.74093794 -26.05582085 37.02179052 -25.5625 30.9375 C-25.46066406 29.62652344 -25.35882813 28.31554687 -25.25390625 26.96484375 C-25.17011719 25.98644531 -25.08632812 25.00804688 -25 24 C-24.34 24 -23.68 24 -23 24 C-23 23.34 -23 22.68 -23 22 C-21.3712031 20.27248814 -19.71712098 18.6361649 -18 17 C-16.74593722 15.77497868 -15.49603331 14.54568761 -14.25 13.3125 C-13.65703125 12.73113281 -13.0640625 12.14976563 -12.453125 11.55078125 C-10.90358196 10.04486026 -10.90358196 10.04486026 -10 8 C-9.34 8 -8.68 8 -8 8 C-8 7.34 -8 6.68 -8 6 C-7.34 6 -6.68 6 -6 6 C-6 5.34 -6 4.68 -6 4 C-1.41176471 0 -1.41176471 0 0 0 Z " fill="#9AC7C7" transform="translate(125,99)"/>
<path d="M0 0 C3.26196173 1.63098087 4.77898439 2.5293676 7.20703125 4.9765625 C7.79419922 5.56566406 8.38136719 6.15476562 8.98632812 6.76171875 C9.58896484 7.37660156 10.19160156 7.99148437 10.8125 8.625 C11.40353516 9.21667969 11.99457031 9.80835937 12.60351562 10.41796875 C13.80790959 11.63418337 14.99865542 12.86405135 16.17602539 14.10644531 C17.40819436 15.38561845 18.68316716 16.62469601 19.99389648 17.82324219 C23.89942317 21.64716675 25.4386192 24.28383943 25.68359375 29.8125 C25.6441161 31.87625311 25.55393768 33.93915608 25.4375 36 C25.293125 39.63 25.14875 43.26 25 47 C16.75 47 8.5 47 0 47 C0 31.49 0 15.98 0 0 Z " fill="#9AC7C7" transform="translate(126,100)"/>
<path d="M0 0 C11.625 -0.25 11.625 -0.25 15 2 C16.05432279 5.33868884 16.10493755 7.68518735 15 11 C16.66342837 9.33657163 16.36048097 7.2174291 16.5625 4.9375 C16.706875 3.308125 16.85125 1.67875 17 0 C22.61 0 28.22 0 34 0 C34.10829314 2.89684158 34.18743954 5.78961019 34.25 8.6875 C34.30027344 9.91243164 34.30027344 9.91243164 34.3515625 11.16210938 C34.4170404 15.20536988 34.30649006 17.46226181 32.265625 21.04296875 C29.08281911 23.79225453 27.18169905 23.70811527 23.12890625 23.5078125 C21 23 21 23 18.4375 20.5 C17.963125 19.675 17.48875 18.85 17 18 C16.278125 18.804375 15.55625 19.60875 14.8125 20.4375 C11.8685317 23.11978223 10.87915422 23.81527837 7 24 C4.69 23.67 2.38 23.34 0 23 C0 15.41 0 7.82 0 0 Z " fill="#FE9732" transform="translate(0,155)"/>
<path d="M0 0 C2.58455285 1.89533875 2.96275506 2.88826517 4 6 C4.07973476 7.33525717 4.10771338 8.67412083 4.09765625 10.01171875 C4.09443359 10.76904297 4.09121094 11.52636719 4.08789062 12.30664062 C4.07532227 13.48516602 4.07532227 13.48516602 4.0625 14.6875 C4.05798828 15.48478516 4.05347656 16.28207031 4.04882812 17.10351562 C4.0370585 19.06904257 4.01912348 21.03453085 4 23 C0.04 23.495 0.04 23.495 -4 24 C-4 22.02 -4 20.04 -4 18 C-4.66 18 -5.32 18 -6 18 C-5.814375 18.639375 -5.62875 19.27875 -5.4375 19.9375 C-5.293125 20.618125 -5.14875 21.29875 -5 22 C-6 23 -6 23 -7.84765625 23.09765625 C-9.8984375 23.06510417 -11.94921875 23.03255208 -14 23 C-14 18.05 -14 13.1 -14 8 C-15.65 8 -17.3 8 -19 8 C-19 13.28 -19 18.56 -19 24 C-21.64 23.67 -24.28 23.34 -27 23 C-27 18.05 -27 13.1 -27 8 C-28.32 8 -29.64 8 -31 8 C-31 5.36 -31 2.72 -31 0 C-25.39 0 -19.78 0 -14 0 C-13.67 1.32 -13.34 2.64 -13 4 C-12.3503125 3.0409375 -12.3503125 3.0409375 -11.6875 2.0625 C-8.35301078 -2.01298683 -4.7347907 -1.01459801 0 0 Z M-5 8 C-5.33 8.66 -5.66 9.32 -6 10 C-5.34 10 -4.68 10 -4 10 C-4.33 9.34 -4.66 8.68 -5 8 Z " fill="#FE9732" transform="translate(87,155)"/>
<path d="M0 0 C0.66 0.66 1.32 1.32 2 2 C4.9093558 2.14517744 7.719946 2.18630796 10.625 2.125 C11.42679688 2.11597656 12.22859375 2.10695312 13.0546875 2.09765625 C15.03658523 2.07406223 17.01832981 2.03819065 19 2 C19 1.34 19 0.68 19 0 C20.32 0 21.64 0 23 0 C23 0.66 23 1.32 23 2 C25.41696872 2.05411124 27.83271787 2.09372278 30.25 2.125 C31.27287109 2.15013672 31.27287109 2.15013672 32.31640625 2.17578125 C36.17130163 2.21320742 38.65329569 1.84645755 42 0 C44.359375 -0.1953125 44.359375 -0.1953125 46.75 -0.125 C47.54921875 -0.10695312 48.3484375 -0.08890625 49.171875 -0.0703125 C49.77515625 -0.04710937 50.3784375 -0.02390625 51 0 C51.495 0.99 51.495 0.99 52 2 C52.84304687 1.97679687 53.68609375 1.95359375 54.5546875 1.9296875 C56.19824219 1.90261719 56.19824219 1.90261719 57.875 1.875 C59.51082031 1.84019531 59.51082031 1.84019531 61.1796875 1.8046875 C64 2 64 2 66 4 C66.125 7.125 66.125 7.125 66 10 C53.33333333 10 40.66666667 10 28 10 C26.2221728 10.04273939 24.44434569 10.08548279 22.66651917 10.12825012 C19.60706289 10.19453476 16.547462 10.23570422 13.48754883 10.2746582 C11.87247493 10.29986071 10.2575157 10.33402364 8.64282227 10.37719727 C6.31498284 10.43781189 3.98864019 10.46618937 1.66015625 10.48828125 C0.57723045 10.52699089 0.57723045 10.52699089 -0.52757263 10.56648254 C-2.57006836 10.56762695 -2.57006836 10.56762695 -6 10 C-8.02172852 7.64135742 -8.02172852 7.64135742 -9 5 C-8.3125 2.25 -8.3125 2.25 -7 0 C-4.29393021 -1.35303489 -2.8671629 -0.7884698 0 0 Z M-4 3 C-4 3.99 -4 4.98 -4 6 C-2.68 5.34 -1.36 4.68 0 4 C-1.32 3.67 -2.64 3.34 -4 3 Z " fill="#FC9632" transform="translate(98,182)"/>
<path d="M0 0 C16.83 0 33.66 0 51 0 C51 2.97 51 5.94 51 9 C34.17 9 17.34 9 0 9 C0 6.03 0 3.06 0 0 Z " fill="#F18138" transform="translate(198,183)"/>
<path d="M0 0 C16.83 0 33.66 0 51 0 C51 2.97 51 5.94 51 9 C34.17 9 17.34 9 0 9 C0 6.03 0 3.06 0 0 Z " fill="#FE9832" transform="translate(1,183)"/>
<path d="M0 0 C3.5578125 -0.0928125 3.5578125 -0.0928125 7.1875 -0.1875 C8.29387817 -0.22846802 8.29387817 -0.22846802 9.42260742 -0.27026367 C13.83935173 -0.32573392 16.52119467 0.27164994 20 3 C22.84860866 7.27291299 22.72485019 10.98840137 22 16 C19.91670419 19.88881884 18.78359672 21.35224105 14.6875 22.83984375 C9.17905387 24.12458805 5.87385668 23.83912238 0 23 C0 15.41 0 7.82 0 0 Z M8 8 C8 10.31 8 12.62 8 15 C9.98 14.67 11.96 14.34 14 14 C14 12.35 14 10.7 14 9 C11.03 8.505 11.03 8.505 8 8 Z " fill="#FD9732" transform="translate(139,155)"/>
<path d="M0 0 C14.19642857 -0.53571429 14.19642857 -0.53571429 17.75 1.75 C20.40026509 4.40026509 21.88762186 6.38924666 22.15234375 10.18359375 C21.73964435 14.51318566 21.35185184 16.55792974 18.5625 20.0625 C16 22 16 22 14 22 C14 22.66 14 23.32 14 24 C9.00067249 24.0861953 5.02377899 23.8372965 0 23 C0 15.41 0 7.82 0 0 Z M8 8 C8 10.31 8 12.62 8 15 C9.65 14.67 11.3 14.34 13 14 C13.6814823 12.10820797 13.6814823 12.10820797 14 10 C13.34 9.34 12.68 8.68 12 8 C10.68 8 9.36 8 8 8 Z " fill="#FD9732" transform="translate(93,155)"/>
<path d="M0 0 C7.41428001 -0.35835948 14.82629339 -0.60148234 22.24731445 -0.76904297 C24.76476441 -0.83895871 27.28165602 -0.93413668 29.79711914 -1.05615234 C52.95643289 -2.15043796 52.95643289 -2.15043796 61.27207947 5.07077026 C64.0903125 7.9031414 66.58482975 10.81516575 69 14 C70.1055189 13.06409496 71.20935453 12.12620142 72.3125 11.1875 C72.92738281 10.66542969 73.54226562 10.14335937 74.17578125 9.60546875 C75.85424679 8.12827531 77.43882034 6.59960869 79 5 C79.99 5.495 79.99 5.495 81 6 C77.37 9.63 73.74 13.26 70 17 C62.125 11.375 62.125 11.375 61 8 C59.68596724 7.29605388 58.3479743 6.63654342 57 6 C56.05314331 4.99598145 56.05314331 4.99598145 55.0871582 3.97167969 C50.37182135 0.96012885 45.84196338 1.39681071 40.35546875 1.390625 C39.2305452 1.37408875 38.10562164 1.35755249 36.9466095 1.34051514 C33.3601843 1.29200217 29.77418326 1.27065591 26.1875 1.25 C23.75323383 1.22184323 21.31898745 1.19191622 18.88476562 1.16015625 C12.92325417 1.08624218 6.96186216 1.0346189 1 1 C1.00888245 2.00367111 1.01776489 3.00734222 1.0269165 4.04142761 C1.10802008 13.50228727 1.1679739 22.96307635 1.20724869 32.42420483 C1.22811917 37.28824037 1.256427 42.15199517 1.30175781 47.01586914 C1.34523476 51.71023122 1.36914117 56.40432334 1.37950897 61.09887123 C1.38689702 62.88945071 1.40132426 64.68001549 1.42292023 66.47047997 C1.45197925 68.97958623 1.45595503 71.48757857 1.45410156 73.99682617 C1.47567322 75.10597633 1.47567322 75.10597633 1.49768066 76.23753357 C1.45856838 81.1343059 0.45290021 83.55203139 -3 87 C-4.44276741 88.18627542 -5.88658257 89.37150215 -7.34765625 90.53515625 C-10.00271686 92.88893338 -12.21454978 95.60842451 -14.484375 98.328125 C-16 100 -16 100 -18 101 C-18 98.36 -18 95.72 -18 93 C-19.32 93 -20.64 93 -22 93 C-21.89558594 93.90621094 -21.79117188 94.81242187 -21.68359375 95.74609375 C-21.03082514 105.53762283 -21.03082514 105.53762283 -23.7578125 109.65234375 C-26.08397545 111.89571107 -28.50664743 113.94547748 -31 116 C-32.23950824 117.32569081 -33.4502866 118.67906759 -34.625 120.0625 C-35.17542969 120.70316406 -35.72585937 121.34382813 -36.29296875 122.00390625 C-36.85628906 122.66261719 -37.41960938 123.32132812 -38 124 C-39.31085828 125.50143492 -40.62332276 127.00146924 -41.9375 128.5 C-42.948125 129.655 -43.95875 130.81 -45 132 C-40.38 132.33 -35.76 132.66 -31 133 C-31 129.37 -31 125.74 -31 122 C-29.515 121.505 -29.515 121.505 -28 121 C-28.14084796 122.79206547 -28.28783701 124.58364917 -28.4375 126.375 C-28.55931641 127.87160156 -28.55931641 127.87160156 -28.68359375 129.3984375 C-29 132 -29 132 -30 134 C-36.27 134 -42.54 134 -49 134 C-45.13886125 128.55480432 -41.0187871 123.89829718 -36.24609375 119.23828125 C-32.98010438 115.98365184 -29.93691747 112.55321362 -27 109 C-26.45472656 108.39285156 -25.90945312 107.78570312 -25.34765625 107.16015625 C-23.57461632 104.31815312 -23.49322164 102.07527818 -23.3125 98.75 C-23.24675781 97.67234375 -23.18101563 96.5946875 -23.11328125 95.484375 C-23.07589844 94.66453125 -23.03851563 93.8446875 -23 93 C-23.66 93 -24.32 93 -25 93 C-25 91.68 -25 90.36 -25 89 C-21.7 89 -18.4 89 -15 89 C-15.2784375 90.175625 -15.2784375 90.175625 -15.5625 91.375 C-16.25962266 93.97089775 -16.25962266 93.97089775 -15 96 C-14.40832031 95.25234375 -13.81664062 94.5046875 -13.20703125 93.734375 C-12.41683594 92.74953125 -11.62664063 91.7646875 -10.8125 90.75 C-10.03519531 89.77546875 -9.25789063 88.8009375 -8.45703125 87.796875 C-6 85 -6 85 -3.38764954 83.31829834 C-0.6409969 80.65142443 -0.39813139 79.12328274 -0.31443787 75.36195374 C-0.32306351 74.61892502 -0.33168915 73.8758963 -0.34057617 73.11035156 C-0.32485062 71.92441658 -0.32485062 71.92441658 -0.30880737 70.71452332 C-0.28004916 68.10615837 -0.28634942 65.49912013 -0.29296875 62.890625 C-0.27985411 61.08028499 -0.26455061 59.26995962 -0.24714661 57.45965576 C-0.20725608 52.69863179 -0.19710357 47.93799023 -0.19311523 43.17681885 C-0.18379141 38.31697967 -0.14638261 33.4573659 -0.11132812 28.59765625 C-0.04671106 19.06511473 -0.01350476 9.53274135 0 0 Z " fill="#D35045" transform="translate(56,12)"/>
<path d="M0 0 C1.99301736 1.58066894 2.86543351 2.73086702 4 5 C4.08308638 6.37548156 4.10736016 7.75485796 4.09765625 9.1328125 C4.09443359 9.93847656 4.09121094 10.74414062 4.08789062 11.57421875 C4.07951172 12.41597656 4.07113281 13.25773438 4.0625 14.125 C4.05798828 14.97449219 4.05347656 15.82398438 4.04882812 16.69921875 C4.03702874 18.79950909 4.01909306 20.8997633 4 23 C-1.61 23 -7.22 23 -13 23 C-14.22668409 19.31994772 -14.01412401 16.49770263 -13.8125 12.625 C-13.75707031 11.31789062 -13.70164063 10.01078125 -13.64453125 8.6640625 C-12.92800362 4.59071151 -11.93341664 2.86370107 -9 0 C-5.45026831 -1.1832439 -3.60040463 -0.90010116 0 0 Z " fill="#FE9832" transform="translate(234,155)"/>
<path d="M0 0 C0 2.64 0 5.28 0 8 C-2.31 8.33 -4.62 8.66 -7 9 C-7 10.65 -7 12.3 -7 14 C-6.67 12.35 -6.34 10.7 -6 9 C-2.625 8.875 -2.625 8.875 1 9 C3 11 3 11 3.375 14.875 C3.27521718 17.76344993 3.04033165 18.92985799 1.5625 21.5 C-2.26720413 23.74177803 -5.67745402 23.87994686 -10 23 C-13.52286157 20.52650145 -14.75736098 18.56967421 -16.4375 14.625 C-17.10285944 10.33712804 -16.72436862 7.97354508 -15 4 C-9.99680522 -0.87490774 -6.73451326 -1.14359659 0 0 Z " fill="#FD9632" transform="translate(217,155)"/>
<path d="M0 0 C0 15.84 0 31.68 0 48 C-8.25 48 -16.5 48 -25 48 C-25.69545134 41.74093794 -26.05582085 37.02179052 -25.5625 30.9375 C-25.46066406 29.62652344 -25.35882813 28.31554687 -25.25390625 26.96484375 C-25.17011719 25.98644531 -25.08632812 25.00804688 -25 24 C-24.34 24 -23.68 24 -23 24 C-23 23.34 -23 22.68 -23 22 C-21.3712031 20.27248814 -19.71712098 18.6361649 -18 17 C-16.74593722 15.77497868 -15.49603331 14.54568761 -14.25 13.3125 C-13.65703125 12.73113281 -13.0640625 12.14976563 -12.453125 11.55078125 C-10.90358196 10.04486026 -10.90358196 10.04486026 -10 8 C-9.34 8 -8.68 8 -8 8 C-8 7.34 -8 6.68 -8 6 C-7.34 6 -6.68 6 -6 6 C-6 5.34 -6 4.68 -6 4 C-1.41176471 0 -1.41176471 0 0 0 Z M-3 6 C-4.50049936 7.48361694 -4.50049936 7.48361694 -6.0625 9.4375 C-9.52839843 13.52959016 -13.23908256 17.28241247 -17.08203125 21.01953125 C-20.05026497 24.08448949 -21.25503139 26.02028696 -21.1953125 30.23046875 C-21.19031738 30.95387451 -21.18532227 31.67728027 -21.18017578 32.42260742 C-21.16196777 33.33502197 -21.14375977 34.24743652 -21.125 35.1875 C-21.08375 38.095625 -21.0425 41.00375 -21 44 C-14.4 44 -7.8 44 -1 44 C-1 31.46 -1 18.92 -1 6 C-1.66 6 -2.32 6 -3 6 Z " fill="#E27142" transform="translate(125,99)"/>
<path d="M0 0 C3.26196173 1.63098087 4.77898439 2.5293676 7.20703125 4.9765625 C7.79419922 5.56566406 8.38136719 6.15476562 8.98632812 6.76171875 C9.58896484 7.37660156 10.19160156 7.99148437 10.8125 8.625 C11.40353516 9.21667969 11.99457031 9.80835937 12.60351562 10.41796875 C13.80790959 11.63418337 14.99865542 12.86405135 16.17602539 14.10644531 C17.40819436 15.38561845 18.68316716 16.62469601 19.99389648 17.82324219 C23.89942317 21.64716675 25.4386192 24.28383943 25.68359375 29.8125 C25.6441161 31.87625311 25.55393768 33.93915608 25.4375 36 C25.293125 39.63 25.14875 43.26 25 47 C16.75 47 8.5 47 0 47 C0 31.49 0 15.98 0 0 Z M1 5 C1 17.54 1 30.08 1 43 C7.6 43 14.2 43 21 43 C22.48616957 31.72047755 22.48616957 31.72047755 18.796875 21.4140625 C16.10383167 18.34884096 13.05279598 15.69991903 10 13 C8.61946385 11.43960526 7.26077675 9.85923909 5.9375 8.25 C4.43467016 6.37957416 4.43467016 6.37957416 3 5 C2.34 5 1.68 5 1 5 Z " fill="#F28A3B" transform="translate(126,100)"/>
<path d="M0 0 C0 7.59 0 15.18 0 23 C-8 24 -8 24 -10.9375 22.75 C-13 21 -13 21 -14 18 C-14.17066284 15.87930439 -14.2662598 13.75204902 -14.3125 11.625 C-14.34988281 10.50351563 -14.38726562 9.38203125 -14.42578125 8.2265625 C-13.1983782 -1.07467526 -9.23900007 0 0 0 Z " fill="#FD9632" transform="translate(176,155)"/>
<path d="M0 0 C0 7.59 0 15.18 0 23 C-9 23 -9 23 -13 21 C-14.57314184 17.85371632 -14.26696326 14.51418512 -14.3125 11.0625 C-14.34150391 10.33353516 -14.37050781 9.60457031 -14.40039062 8.85351562 C-14.42578125 6.72265625 -14.42578125 6.72265625 -14 3 C-10 0 -10 0 0 0 Z " fill="#FB9333" transform="translate(130,155)"/>
<path d="M0 0 C0 2.64 0 5.28 0 8 C-0.99 7.67 -1.98 7.34 -3 7 C-2.67 7.495 -2.34 7.99 -2 8.5 C-0.5811661 12.04708474 -0.39758843 15.23106607 -1 19 C-2.5 21.5 -2.5 21.5 -5 23 C-7.75841574 23.31584913 -10.20601454 23.1862657 -13 23 C-13 20.36 -13 17.72 -13 15 C-12.01 14.67 -11.02 14.34 -10 14 C-10.350625 13.484375 -10.70125 12.96875 -11.0625 12.4375 C-12.39525147 8.97234618 -11.8437179 6.56957573 -11 3 C-7.94936089 -1.15996243 -4.74112985 -1.1532478 0 0 Z " fill="#FE9732" transform="translate(190,155)"/>
<path d="M0 0 C0 2.31 0 4.62 0 7 C-0.66 7 -1.32 7 -2 7 C-1.67 7.495 -1.34 7.99 -1 8.5 C0.4188339 12.04708474 0.60241157 15.23106607 0 19 C-1.5 21.5 -1.5 21.5 -4 23 C-6.75841574 23.31584913 -9.20601454 23.1862657 -12 23 C-12 20.36 -12 17.72 -12 15 C-11.01 14.67 -10.02 14.34 -9 14 C-9.66 13.01 -10.32 12.02 -11 11 C-11.15280821 7.39081551 -10.73008135 4.02875099 -8.625 1.0625 C-5.4500404 -1.01343512 -3.49462762 -1.08453961 0 0 Z " fill="#FE9832" transform="translate(251,155)"/>
<path d="M0 0 C1.32 0 2.64 0 4 0 C4 3.63 4 7.26 4 11 C0.37480411 11.05375085 -3.2496019 11.09355293 -6.875 11.125 C-7.90753906 11.14175781 -8.94007812 11.15851563 -10.00390625 11.17578125 C-10.99003906 11.18222656 -11.97617188 11.18867188 -12.9921875 11.1953125 C-14.35899658 11.21102295 -14.35899658 11.21102295 -15.75341797 11.22705078 C-18 11 -18 11 -20 9 C-19.44444444 4.44444444 -19.44444444 4.44444444 -18 3 C-16.65732587 2.91368126 -15.31025678 2.89293527 -13.96484375 2.90234375 C-13.15595703 2.90556641 -12.34707031 2.90878906 -11.51367188 2.91210938 C-10.66353516 2.92048828 -9.81339844 2.92886719 -8.9375 2.9375 C-8.08349609 2.94201172 -7.22949219 2.94652344 -6.34960938 2.95117188 C-4.23304337 2.96299627 -2.11651315 2.98093231 0 3 C0 2.01 0 1.02 0 0 Z " fill="#FC9532" transform="translate(83,181)"/>
<path d="M0 0 C2.64 0 5.28 0 8 0 C8 4.95 8 9.9 8 15 C8.99 15 9.98 15 11 15 C11 17.64 11 20.28 11 23 C4.505145 22.38727783 4.505145 22.38727783 2.125 20.5625 C-0.63650765 16.72707271 -0.11043051 12.9173379 -0.0625 8.375 C-0.05798828 7.57320312 -0.05347656 6.77140625 -0.04882812 5.9453125 C-0.03703168 3.96350994 -0.01909605 1.98174567 0 0 Z " fill="#FE9732" transform="translate(46,155)"/>
<path d="M0 0 C1.65 0 3.3 0 5 0 C4.67 2.31 4.34 4.62 4 7 C4.99 7 5.98 7 7 7 C7.33 5.02 7.66 3.04 8 1 C8.8353125 1.2165625 8.8353125 1.2165625 9.6875 1.4375 C12.11384195 2.02769128 14.54906345 2.523429 17 3 C17 2.01 17 1.02 17 0 C18.32 0 19.64 0 21 0 C21 3.63 21 7.26 21 11 C14.07 11 7.14 11 0 11 C0 7.37 0 3.74 0 0 Z " fill="#FB9432" transform="translate(166,181)"/>
<path d="M0 0 C2.64 0 5.28 0 8 0 C8 7.59 8 15.18 8 23 C5.36 23 2.72 23 0 23 C0 15.41 0 7.82 0 0 Z " fill="#FE9832" transform="translate(191,155)"/>
<path d="M0 0 C2.64 0 5.28 0 8 0 C8 7.59 8 15.18 8 23 C5.36 23 2.72 23 0 23 C0 15.41 0 7.82 0 0 Z " fill="#FE9832" transform="translate(36,155)"/>
<path d="M0 0 C16.83 0 33.66 0 51 0 C51 2.97 51 5.94 51 9 C34.17 9 17.34 9 0 9 C0 6.03 0 3.06 0 0 Z M2 2 C2 3.98 2 5.96 2 8 C17.51 8 33.02 8 49 8 C49 6.02 49 4.04 49 2 C33.49 2 17.98 2 2 2 Z " fill="#DE5E41" transform="translate(1,183)"/>
<path d="M0 0 C3.3 0 6.6 0 10 0 C9.7215625 1.175625 9.7215625 1.175625 9.4375 2.375 C8.74037734 4.97089775 8.74037734 4.97089775 10 7 C10.99 6.01 11.98 5.02 13 4 C13.66 4.33 14.32 4.66 15 5 C13.8572081 6.16964602 12.71068285 7.33564556 11.5625 8.5 C10.60537109 9.47453125 10.60537109 9.47453125 9.62890625 10.46875 C8 12 8 12 7 12 C7 9.36 7 6.72 7 4 C5.68 4 4.36 4 3 4 C3.10441406 4.90621094 3.20882812 5.81242187 3.31640625 6.74609375 C3.96917486 16.53762283 3.96917486 16.53762283 1.2421875 20.65234375 C-1.08397545 22.89571107 -3.50664743 24.94547748 -6 27 C-7.23950824 28.32569081 -8.4502866 29.67906759 -9.625 31.0625 C-10.17542969 31.70316406 -10.72585937 32.34382813 -11.29296875 33.00390625 C-11.85628906 33.66261719 -12.41960938 34.32132813 -13 35 C-14.31085828 36.50143492 -15.62332276 38.00146924 -16.9375 39.5 C-17.948125 40.655 -18.95875 41.81 -20 43 C-13.07 43.495 -13.07 43.495 -6 44 C-6 40.37 -6 36.74 -6 33 C-4.515 32.505 -4.515 32.505 -3 32 C-3.14084796 33.79206547 -3.28783701 35.58364917 -3.4375 37.375 C-3.51871094 38.37273437 -3.59992187 39.37046875 -3.68359375 40.3984375 C-4 43 -4 43 -5 45 C-11.27 45 -17.54 45 -24 45 C-20.13886125 39.55480432 -16.0187871 34.89829718 -11.24609375 30.23828125 C-7.98010438 26.98365184 -4.93691747 23.55321362 -2 20 C-1.45472656 19.39285156 -0.90945312 18.78570312 -0.34765625 18.16015625 C1.42538368 15.31815312 1.50677836 13.07527818 1.6875 9.75 C1.75324219 8.67234375 1.81898437 7.5946875 1.88671875 6.484375 C1.92410156 5.66453125 1.96148437 4.8446875 2 4 C1.34 4 0.68 4 0 4 C0 2.68 0 1.36 0 0 Z " fill="#DC5E41" transform="translate(31,101)"/>
<path d="M0 0 C3.37293565 1.68646783 4.93346994 2.69149717 7.453125 5.2578125 C8.071875 5.88300781 8.690625 6.50820312 9.328125 7.15234375 C9.96234375 7.80332031 10.5965625 8.45429687 11.25 9.125 C11.8996875 9.78371094 12.549375 10.44242188 13.21875 11.12109375 C14.81711727 12.74296643 16.41061897 14.3693281 18 16 C17.67 16.66 17.34 17.32 17 18 C12.38 13.38 7.76 8.76 3 4 C0.84543031 6.15456969 1.73973374 11.0711627 1.68359375 14.06640625 C1.66281265 14.97502914 1.64203156 15.88365204 1.62062073 16.81980896 C1.55502328 19.73395946 1.4961932 22.64820304 1.4375 25.5625 C1.39432446 27.53321291 1.35071049 29.50391626 1.30664062 31.47460938 C1.19850314 36.31631209 1.09950598 41.15808128 1 46 C8.59 46 16.18 46 24 46 C24 38.74 24 31.48 24 24 C24.33 24 24.66 24 25 24 C25 31.59 25 39.18 25 47 C16.75 47 8.5 47 0 47 C0 31.49 0 15.98 0 0 Z " fill="#D14845" transform="translate(126,100)"/>
<path d="M0 0 C10.89 0 21.78 0 33 0 C33 0.66 33 1.32 33 2 C38.94 2 44.88 2 51 2 C50.67 2.66 50.34 3.32 50 4 C31.19 3.67 12.38 3.34 -7 3 C-7 2.67 -7 2.34 -7 2 C-4.69 2 -2.38 2 0 2 C0 1.34 0 0.68 0 0 Z " fill="#FC9532" transform="translate(192,144)"/>
<path d="M0 0 C0.495 1.485 0.495 1.485 1 3 C3.64 3 6.28 3 9 3 C9 3.33 9 3.66 9 4 C1.86515864 4.16880276 -5.26984447 4.32858276 -12.4050293 4.48217773 C-14.83085677 4.5354517 -17.25664028 4.59076892 -19.68237305 4.64819336 C-23.17487106 4.73051295 -26.6674627 4.80541331 -30.16015625 4.87890625 C-31.23959 4.90594131 -32.31902374 4.93297638 -33.4311676 4.96083069 C-38.75618834 5.06569107 -43.7572255 4.9641511 -49 4 C-49 3.67 -49 3.34 -49 3 C-43.06 3 -37.12 3 -31 3 C-31 2.34 -31 1.68 -31 1 C-15.655 0.505 -15.655 0.505 0 0 Z " fill="#FB9532" transform="translate(57,143)"/>
<path d="M0 0 C0 15.51 0 31.02 0 47 C-0.33 46.34 -0.66 45.68 -1 45 C-2.485 44.505 -2.485 44.505 -4 44 C-3.01 44 -2.02 44 -1 44 C-1 31.46 -1 18.92 -1 6 C-1.66 6 -2.32 6 -3 6 C-3.309375 6.8353125 -3.309375 6.8353125 -3.625 7.6875 C-5.83462088 11.40368057 -9.1237267 14.1471485 -13.0625 15.9375 C-16.08385885 17.59437421 -17.81963408 20.37237954 -20 23 C-20.99 23.33 -21.98 23.66 -23 24 C-23 22 -23 22 -20.9375 19.8125 C-19.96092445 18.87230119 -18.98141564 17.93514542 -18 17 C-16.74593722 15.77497868 -15.49603331 14.54568761 -14.25 13.3125 C-13.65703125 12.73113281 -13.0640625 12.14976563 -12.453125 11.55078125 C-10.90358196 10.04486026 -10.90358196 10.04486026 -10 8 C-9.34 8 -8.68 8 -8 8 C-8 7.34 -8 6.68 -8 6 C-7.34 6 -6.68 6 -6 6 C-6 5.34 -6 4.68 -6 4 C-1.41176471 0 -1.41176471 0 0 0 Z " fill="#DB6446" transform="translate(125,99)"/>
<path d="M0 0 C2.64 0 5.28 0 8 0 C8 5.28 8 10.56 8 16 C5.69 16 3.38 16 1 16 C0 15 0 15 -0.09765625 11.62109375 C-0.09098369 10.22652923 -0.07902532 8.83198257 -0.0625 7.4375 C-0.05798828 6.72658203 -0.05347656 6.01566406 -0.04882812 5.28320312 C-0.03700864 3.52209987 -0.01907263 1.76103964 0 0 Z " fill="#CB484A" transform="translate(46,119)"/>
<path d="M0 0 C2.64 0 5.28 0 8 0 C8 4.95 8 9.9 8 15 C3 16 3 16 0 15 C0 10.05 0 5.1 0 0 Z " fill="#CE534C" transform="translate(192,119)"/>
<path d="M0 0 C2.31 0 4.62 0 7 0 C7 5.28 7 10.56 7 16 C5.02 16 3.04 16 1 16 C0 15 0 15 -0.09765625 11.62109375 C-0.09098369 10.22652923 -0.07902532 8.83198257 -0.0625 7.4375 C-0.05798828 6.72658203 -0.05347656 6.01566406 -0.04882812 5.28320312 C-0.03700864 3.52209987 -0.01907263 1.76103964 0 0 Z " fill="#CE554F" transform="translate(55,119)"/>
<path d="M0 0 C4.2742558 1.5830577 6.26531794 4.50568404 9 8 C8.28714844 8.70125 7.57429688 9.4025 6.83984375 10.125 C1.33034345 15.57287709 -3.97753648 21.09307749 -9 27 C-9.33 27.33 -9.66 27.66 -10 28 C-7.10219466 28.40343697 -4.90947443 28.61666394 -2.41210938 26.92333984 C-0.7789299 25.40571552 0.74226629 23.82971749 2.25 22.1875 C3.04277344 21.36668945 3.04277344 21.36668945 3.8515625 20.52929688 C6.14857067 18.12443426 8.15220921 15.77168618 10 13 C10.66 13.33 11.32 13.66 12 14 C9.80243942 16.47103478 7.59544928 18.93154783 5.3671875 21.375 C4.00444822 22.88615643 2.6622531 24.41769665 1.3828125 26 C-0.64029158 28.37743304 -2.23270072 29.88351232 -5.3671875 30.359375 C-7.614119 30.37337457 -9.77046506 30.26754419 -12 30 C-11.4185168 26.89763832 -10.582744 25.1911058 -8.41796875 22.90625 C-7.89783203 22.35066406 -7.37769531 21.79507813 -6.84179688 21.22265625 C-6.29587891 20.65417969 -5.74996094 20.08570313 -5.1875 19.5 C-4.65318359 18.93152344 -4.11886719 18.36304688 -3.56835938 17.77734375 C-1.29527686 15.36726118 0.99316397 13.00654514 3.38671875 10.71484375 C5.22126554 9.15721079 5.22126554 9.15721079 5 7.0625 C3.69442368 4.36974884 1.94662517 2.26059698 0 0 Z " fill="#D65443" transform="translate(70,116)"/>
<path d="M0 0 C3.72573384 3.04141538 7.14064478 6.03708722 10.2578125 9.703125 C14.61378841 14.74841479 19.21405584 19.54862231 23.83398438 24.3515625 C24.47271484 25.02445313 25.11144531 25.69734375 25.76953125 26.390625 C26.34292236 26.98907227 26.91631348 27.58751953 27.50708008 28.20410156 C29.03633306 30.04370663 30.02163902 31.82480036 31 34 C30.34 34 29.68 34 29 34 C27.4140625 32.390625 27.4140625 32.390625 25.625 30.25 C23.73575743 28.02437055 21.87788079 25.87788079 19.8125 23.8125 C18 22 18 22 15.875 19.3125 C14.20909046 16.93242212 14.20909046 16.93242212 12 16 C12 15.34 12 14.68 12 14 C11.34 14 10.68 14 10 14 C8.37890625 12.35546875 8.37890625 12.35546875 6.5625 10.1875 C4.44029548 7.6711063 2.33439423 5.33439423 0 3 C-2.31 5.31 -4.62 7.62 -7 10 C-7 7 -7 7 -5.46875 5.17578125 C-4.8190625 4.56089844 -4.169375 3.94601563 -3.5 3.3125 C-2.8503125 2.68988281 -2.200625 2.06726563 -1.53125 1.42578125 C-0.77328125 0.72001953 -0.77328125 0.72001953 0 0 Z " fill="#D34E44" transform="translate(125,82)"/>
<path d="M0 0 C0.66 0.33 1.32 0.66 2 1 C2 7.93 2 14.86 2 22 C-5.26 21.67 -12.52 21.34 -20 21 C-20 20.67 -20 20.34 -20 20 C-13.4 20 -6.8 20 0 20 C0 13.4 0 6.8 0 0 Z " fill="#E68B4B" transform="translate(147,123)"/>
<path d="M0 0 C2.31 0 4.62 0 7 0 C7 2.64 7 5.28 7 8 C4.69 8 2.38 8 0 8 C0 5.36 0 2.72 0 0 Z " fill="#CA4C4E" transform="translate(201,127)"/>
<path d="M0 0 C2.31 0 4.62 0 7 0 C7 2.31 7 4.62 7 7 C4.69 7 2.38 7 0 7 C0 4.69 0 2.38 0 0 Z " fill="#BB877F" transform="translate(201,119)"/>
<path d="M0 0 C1.97558594 1.16723633 1.97558594 1.16723633 4 3 C4.45410156 5.4519043 4.45410156 5.4519043 4.390625 8.32421875 C4.37773437 9.35224609 4.36484375 10.38027344 4.3515625 11.43945312 C4.31804687 12.51130859 4.28453125 13.58316406 4.25 14.6875 C4.23195312 15.77095703 4.21390625 16.85441406 4.1953125 17.97070312 C4.14813508 20.64802146 4.08232249 23.32356909 4 26 C3.67 26 3.34 26 3 26 C2.67 18.74 2.34 11.48 2 4 C1.01 4 0.02 4 -1 4 C-1.33 3.34 -1.66 2.68 -2 2 C-1.34 2 -0.68 2 0 2 C0 1.34 0 0.68 0 0 Z " fill="#E77741" transform="translate(146,120)"/>
<path d="M0 0 C0.66 0.33 1.32 0.66 2 1 C-2.76008307 6.5930976 -7.74595676 11.86877855 -13 17 C-13 14 -13 14 -11.6796875 12.421875 C-11.08414063 11.87015625 -10.48859375 11.3184375 -9.875 10.75 C-6.31719795 7.35161067 -3.15670214 3.77264402 0 0 Z " fill="#D45244" transform="translate(114,93)"/>
<path d="M0 0 C1.98 0 3.96 0 6 0 C6.33 5.94 6.66 11.88 7 18 C6.34 17.67 5.68 17.34 5 17 C5 12.38 5 7.76 5 3 C3.35 2.67 1.7 2.34 0 2 C0 1.34 0 0.68 0 0 Z " fill="#E8723C" transform="translate(212,102)"/>
<path d="M0 0 C2.31 1.98 4.62 3.96 7 6 C6.01 6.33 5.02 6.66 4 7 C2.68 5.68 1.36 4.36 0 3 C-2.31 5.31 -4.62 7.62 -7 10 C-7 7 -7 7 -5.46875 5.17578125 C-4.8190625 4.56089844 -4.169375 3.94601563 -3.5 3.3125 C-2.8503125 2.68988281 -2.200625 2.06726563 -1.53125 1.42578125 C-0.77328125 0.72001953 -0.77328125 0.72001953 0 0 Z " fill="#D95943" transform="translate(125,82)"/>
<path d="M0 0 C1.98 0 3.96 0 6 0 C6 1.65 6 3.3 6 5 C4.02 5 2.04 5 0 5 C0 3.35 0 1.7 0 0 Z " fill="#A6ACAC" transform="translate(47,128)"/>
<path d="M0 0 C1.98 0 3.96 0 6 0 C6 1.65 6 3.3 6 5 C4.02 5 2.04 5 0 5 C0 3.35 0 1.7 0 0 Z " fill="#A6ACAC" transform="translate(47,120)"/>
<path d="M0 0 C2.125 0.375 2.125 0.375 4 1 C2.75482035 2.13033298 1.50363348 3.25405036 0.25 4.375 C-0.44609375 5.00148438 -1.1421875 5.62796875 -1.859375 6.2734375 C-3.84508688 7.87505183 -5.67954093 8.96520068 -8 10 C-7.04367001 8.70684939 -6.08486149 7.41553147 -5.125 6.125 C-4.59132812 5.40570313 -4.05765625 4.68640625 -3.5078125 3.9453125 C-2 2 -2 2 0 0 Z " fill="#F1853B" transform="translate(192,94)"/>
<path d="M0 0 C1.65 0 3.3 0 5 0 C5 1.65 5 3.3 5 5 C3.35 5 1.7 5 0 5 C0 3.35 0 1.7 0 0 Z " fill="#A2B5B5" transform="translate(202,128)"/>
<path d="M0 0 C1.65 0 3.3 0 5 0 C5 1.65 5 3.3 5 5 C3.35 5 1.7 5 0 5 C0 3.35 0 1.7 0 0 Z " fill="#A1B7B8" transform="translate(193,128)"/>
<path d="M0 0 C1.65 0 3.3 0 5 0 C5 1.65 5 3.3 5 5 C3.35 5 1.7 5 0 5 C0 3.35 0 1.7 0 0 Z " fill="#A2B5B5" transform="translate(56,128)"/>
<path d="M0 0 C1.65 0 3.3 0 5 0 C5 1.65 5 3.3 5 5 C3.35 5 1.7 5 0 5 C0 3.35 0 1.7 0 0 Z " fill="#A1B8B8" transform="translate(56,120)"/>
<path d="M0 0 C1.65 0 3.3 0 5 0 C5 1.65 5 3.3 5 5 C3.35 5 1.7 5 0 5 C0 3.35 0 1.7 0 0 Z " fill="#A0B8B8" transform="translate(193,120)"/>
<path d="M0 0 C0.66 0 1.32 0 2 0 C1.88648483 1.81325551 1.75887039 3.62563357 1.625 5.4375 C1.55539063 6.44683594 1.48578125 7.45617187 1.4140625 8.49609375 C1.27742188 9.32238281 1.14078125 10.14867187 1 11 C0.01 11.495 0.01 11.495 -1 12 C-1.02687279 10.18757948 -1.04633715 8.37504767 -1.0625 6.5625 C-1.07410156 5.55316406 -1.08570312 4.54382813 -1.09765625 3.50390625 C-1 1 -1 1 0 0 Z " fill="#D34F43" transform="translate(26,133)"/>
<path d="M0 0 C2.49361571 1.20381448 4.68143083 2.45428722 7 4 C7 4.99 7 5.98 7 7 C4.13302508 5.71480435 2.02392288 4.42870746 0 2 C0 1.34 0 0.68 0 0 Z " fill="#F18539" transform="translate(139,115)"/>
<path d="M0 0 C0.66 0.33 1.32 0.66 2 1 C1.67 2.65 1.34 4.3 1 6 C-1.97 5.505 -1.97 5.505 -5 5 C-5 4.67 -5 4.34 -5 4 C-3.35 4 -1.7 4 0 4 C0 2.68 0 1.36 0 0 Z " fill="#C2565A" transform="translate(198,129)"/>
</svg>
